<svg id="Calque_1" data-name="Calque 1" xmlns="http://www.w3.org/2000/svg" viewBox="0 0 402.04 836.69"><defs><style>.cls-1{fill:#fefefe;}</style></defs><title>facebook_logo</title><path class="cls-1" d="M888,1418c.84-1.74.48-3.61.48-5.42q0-196.72.14-393.46c0-5.14-1.37-6.26-6.34-6.21-26,.27-52,0-78,.22-4,0-5-1.08-5-5q.2-69.49,0-139c0-4,1.14-5,5.06-5,26.33.16,52.66,0,79,.18,4.2,0,5.22-1.18,5.22-5.29,0-34.66-.91-69.34.5-104,1.34-33.05,7.11-65.21,23-94.77,19.06-35.5,49.29-56.89,87.25-68.27,28.2-8.46,57.21-10.56,86.45-10.59,36.5,0,73,.09,109.49-.13,4.8,0,5.67,1.53,5.65,5.92q-.23,68.73,0,137.48c0,4.38-1,5.58-5.48,5.53-21.83-.25-43.66-.16-65.49-.09-10.17,0-20.35.26-30.32,2.49-20.85,4.67-30,15.32-31.66,36.62-1.75,22.47-.54,45-.86,67.46-.11,7.34.33,14.69-.14,22-.32,4.89,1.57,5.64,5.88,5.62,41-.14,82,0,123-.21,5,0,5.91,1.18,5.37,6-4.8,43.54-9.32,87.1-13.94,130.66-.42,3.94.75,9.2-1.87,11.46-2.83,2.43-8,.72-12.12.72-33.16.06-66.33,0-99.49,0-7.76,0-6.7-1-6.7,6.49q0,196,0,392c0,2.16,0,4.33-.08,6.49Z" transform="translate(-799.32 -581.31)"/></svg>