<svg id="Calque_1" data-name="Calque 1" xmlns="http://www.w3.org/2000/svg" viewBox="0 0 463.94 536"><defs><style>.cls-1{fill:none;stroke-width:19px;}.cls-1,.cls-2,.cls-4{stroke:#fff;stroke-miterlimit:10;}.cls-2,.cls-3,.cls-4{fill:#fff;}.cls-4{stroke-width:9px;}</style></defs><title>logo_Go4Lunch_blank</title><ellipse class="cls-1" cx="217.5" cy="342" rx="207.96" ry="29.3"/><path class="cls-2" d="M1197,788.38l-.21.12c-1.62,19.65-97.9,35.5-216.46,35.5-119.57,0-216.5-16.12-216.5-36v0l-.17-.05c-.21,3.67-.33,7.36-.33,11.08,0,82.83,54.37,153.93,131.93,184.5h170.14C1143,952.93,1197.35,881.83,1197.35,799,1197.35,795.44,1197.22,791.9,1197,788.38Z" transform="translate(-762.85 -448)"/><ellipse class="cls-2" cx="275.15" cy="376.02" rx="54" ry="44.33"/><line class="cls-3" x1="348.85" y1="298.85" x2="453.15" y2="217"/><path class="cls-3" d="M1119.33,754.48l91.26-71.61,13.05-10.23c4.59-3.61,3.77-11.5,0-15.28-4.54-4.53-10.67-3.61-15.28,0L1117.1,729l-13,10.24c-4.59,3.6-3.78,11.5,0,15.27,4.53,4.54,10.67,3.62,15.27,0Z" transform="translate(-762.85 -448)"/><line class="cls-3" x1="297.29" y1="350.69" x2="348.85" y2="298.85"/><path class="cls-3" d="M1064.38,802.94l51.56-51.85c5.45-5.48-3-14-8.49-8.49l-51.56,51.85c-5.45,5.48,3,14,8.49,8.49Z" transform="translate(-762.85 -448)"/><path class="cls-3" d="M869,715a43.65,43.65,0,0,0,8.26-11.93,55.6,55.6,0,0,0,4.27-13A83.06,83.06,0,0,0,882,663.3a92.44,92.44,0,0,0-6.75-25.09,66.77,66.77,0,0,0-6.08-10.59l-.86-1.21-.92-1.15c-.6-.78-1.25-1.47-1.88-2.19-.3-.37-.64-.68-1-1s-.64-.67-1-.95-.64-.6-.92-.83-.32-.28-.41-.34-.32-.26-.07-.08l2.05,1.14c-.94-.42-1.18-.58-1.68-.84s-.79-.45-1.2-.68c-.79-.46-1.45-.91-2.14-1.38s-1.33-.94-2-1.42-1.27-1-1.84-1.5l-1.75-1.56L852,612a42.35,42.35,0,0,1-3-3.41,58.62,58.62,0,0,1-8.89-15.18c-.51-1.33-1-2.67-1.5-4s-.77-2.71-1.15-4.06l-.55-2-.38-2-.72-4.07c-.21-1.36-.28-2.71-.41-4.06s-.27-2.69-.3-4c0-2.67-.06-5.31.07-8a70.45,70.45,0,0,1,8.63-30.54A59.48,59.48,0,0,1,853,518.13,44.82,44.82,0,0,1,865,509a73.75,73.75,0,0,0-6.49,12.76,72.9,72.9,0,0,0-3.88,13,69.8,69.8,0,0,0-1.47,13,80.83,80.83,0,0,0,.7,12.76c.09,1.05.36,2.13.53,3.19l.53,3.17c.5,2.06,1,4.11,1.49,6.1l.93,2.93.46,1.45.57,1.38,1.1,2.76c.45.87.87,1.74,1.29,2.61a44.36,44.36,0,0,0,6.21,9.14c.62.64,1.19,1.32,1.83,1.88l.93.89,1,.79c.32.28.65.51,1,.74s.64.49.94.67.63.43.88.56.31.19.37.21.31.15-.08,0l2.05,1.14c.76.54,1,.73,1.4,1.05s.68.57,1,.85c.67.56,1.24,1.11,1.82,1.66s1.14,1.11,1.67,1.68,1.09,1.11,1.58,1.69c1,1.15,2,2.31,2.86,3.51l1.35,1.8,1.24,1.85a75.32,75.32,0,0,1,7.74,15.6A87.18,87.18,0,0,1,901,662.74c-.17,2.72-.51,5.44-.78,8.13-.21,1.35-.5,2.71-.75,4s-.48,2.68-.86,4l-1.15,4c-.2.66-.37,1.32-.6,2l-.76,1.93c-.53,1.28-1,2.56-1.57,3.81l-1.87,3.69a41,41,0,0,1-2.15,3.53l-1.11,1.72c-.4.56-.83,1.1-1.25,1.64a39.08,39.08,0,0,1-2.63,3.12,32.5,32.5,0,0,1-2.88,2.87,34.23,34.23,0,0,1-3.1,2.56c-.55.39-1.08.79-1.62,1.16l-1.7,1.06A26.8,26.8,0,0,1,869,715Z" transform="translate(-762.85 -448)"/><path class="cls-3" d="M1073,709a43.65,43.65,0,0,0,8.26-11.93,55.6,55.6,0,0,0,4.27-13,83.06,83.06,0,0,0,.45-26.75,92.44,92.44,0,0,0-6.75-25.09,66.77,66.77,0,0,0-6.08-10.59l-.86-1.21-.92-1.15c-.6-.78-1.25-1.47-1.88-2.19-.3-.37-.64-.68-1-1s-.64-.67-1-.95-.64-.6-.92-.83-.32-.28-.41-.34-.32-.26-.07-.08l2,1.14c-.94-.42-1.18-.58-1.68-.84s-.79-.45-1.2-.68c-.79-.46-1.45-.91-2.14-1.38s-1.33-.94-2-1.42-1.27-1-1.84-1.5l-1.75-1.56L1056,606a42.35,42.35,0,0,1-3-3.41,58.62,58.62,0,0,1-8.89-15.18c-.51-1.33-1-2.67-1.5-4s-.77-2.71-1.15-4.06l-.55-2-.38-2-.72-4.07c-.21-1.36-.28-2.71-.41-4.06s-.27-2.69-.3-4c0-2.67-.06-5.31.07-8a70.45,70.45,0,0,1,8.63-30.54,59.48,59.48,0,0,1,9.23-12.46,44.82,44.82,0,0,1,12-9.13,73.75,73.75,0,0,0-6.49,12.76,72.9,72.9,0,0,0-3.88,13,69.8,69.8,0,0,0-1.47,13,80.83,80.83,0,0,0,.7,12.76c.09,1.05.36,2.13.53,3.19l.53,3.17c.5,2.06.95,4.11,1.49,6.1l.93,2.93.46,1.45.57,1.38,1.1,2.76c.45.87.87,1.74,1.29,2.61a44.36,44.36,0,0,0,6.21,9.14c.62.64,1.19,1.32,1.83,1.88l.93.89,1,.79c.32.28.65.51,1,.74s.64.49.94.67.63.43.88.56.31.19.37.21.31.15-.08,0l2,1.14c.76.54,1,.73,1.4,1.05s.68.57,1,.85c.67.56,1.24,1.11,1.82,1.66s1.14,1.11,1.67,1.68,1.09,1.11,1.58,1.69c1,1.15,2,2.31,2.86,3.51l1.35,1.8,1.24,1.85a75.32,75.32,0,0,1,7.74,15.6,87.18,87.18,0,0,1,4.47,32.91c-.17,2.72-.51,5.44-.78,8.13-.21,1.35-.5,2.71-.75,4s-.48,2.68-.86,4l-1.15,4c-.2.66-.37,1.32-.6,2l-.76,1.93c-.53,1.28-1,2.56-1.57,3.81l-1.87,3.69a41,41,0,0,1-2.15,3.53l-1.11,1.72c-.4.56-.83,1.1-1.25,1.64a39.08,39.08,0,0,1-2.63,3.12,32.5,32.5,0,0,1-2.88,2.87,34.23,34.23,0,0,1-3.1,2.56c-.55.39-1.08.79-1.62,1.16l-1.7,1.06A26.8,26.8,0,0,1,1073,709Z" transform="translate(-762.85 -448)"/><path class="cls-3" d="M967,654a43.65,43.65,0,0,0,8.26-11.93,55.6,55.6,0,0,0,4.27-13A83.06,83.06,0,0,0,980,602.3a92.44,92.44,0,0,0-6.75-25.09,66.77,66.77,0,0,0-6.08-10.59l-.86-1.21-.92-1.15c-.6-.78-1.25-1.47-1.88-2.19-.3-.37-.64-.68-1-1s-.64-.67-1-.95-.64-.6-.92-.83-.32-.28-.41-.34-.32-.26-.07-.08l2.05,1.14c-.94-.42-1.18-.58-1.68-.84s-.79-.45-1.2-.68c-.79-.46-1.45-.91-2.14-1.38s-1.33-.94-2-1.42-1.27-1-1.84-1.5l-1.75-1.56L950,551a42.35,42.35,0,0,1-3-3.41,58.62,58.62,0,0,1-8.89-15.18c-.51-1.33-1-2.67-1.5-4s-.77-2.71-1.15-4.06l-.55-2-.38-2-.72-4.07c-.21-1.36-.28-2.71-.41-4.06s-.27-2.69-.3-4c0-2.67-.06-5.31.07-8a70.45,70.45,0,0,1,8.63-30.54A59.48,59.48,0,0,1,951,457.13,44.82,44.82,0,0,1,963,448a73.75,73.75,0,0,0-6.49,12.76,72.9,72.9,0,0,0-3.88,13,69.8,69.8,0,0,0-1.47,13,80.83,80.83,0,0,0,.7,12.76c.09,1.05.36,2.13.53,3.19l.53,3.17c.5,2.06,1,4.11,1.49,6.1l.93,2.93.46,1.45.57,1.38,1.1,2.76c.45.87.87,1.74,1.29,2.61a44.36,44.36,0,0,0,6.21,9.14c.62.64,1.19,1.32,1.83,1.88l.93.89,1,.79c.32.28.65.51,1,.74s.64.49.94.67.63.43.88.56.31.19.37.21.31.15-.08,0l2.05,1.14c.76.54,1,.73,1.4,1.05s.68.57,1,.85c.67.56,1.24,1.11,1.82,1.66s1.14,1.11,1.67,1.68,1.09,1.11,1.58,1.69c1,1.15,2,2.31,2.86,3.51l1.35,1.8,1.24,1.85a75.32,75.32,0,0,1,7.74,15.6A87.18,87.18,0,0,1,999,601.74c-.17,2.72-.51,5.44-.78,8.13-.21,1.35-.5,2.71-.75,4s-.48,2.68-.86,4l-1.15,4c-.2.66-.37,1.32-.6,2l-.76,1.93c-.53,1.28-1,2.56-1.57,3.81l-1.87,3.69a41,41,0,0,1-2.15,3.53l-1.11,1.72c-.4.56-.83,1.1-1.25,1.64a39.08,39.08,0,0,1-2.63,3.12,32.5,32.5,0,0,1-2.88,2.87,34.23,34.23,0,0,1-3.1,2.56c-.55.39-1.08.79-1.62,1.16l-1.7,1.06A26.8,26.8,0,0,1,967,654Z" transform="translate(-762.85 -448)"/><polyline class="cls-4" points="343.15 296 340.15 305 349.15 305"/></svg>