<svg id="Calque_1" data-name="Calque 1" xmlns="http://www.w3.org/2000/svg" viewBox="0 0 535.47 535.47"><defs><style>.cls-1{fill:#ea5b0c;}.cls-2{fill:none;}.cls-3{fill:#fff;}</style></defs><circle class="cls-1" cx="267.73" cy="267.73" r="267.73"/><path class="cls-2" d="M93.37,93.37H473.56V473.56H93.37Z" transform="translate(-15.73 -15.73)"/><path class="cls-3" d="M221.68,304.69l44.83-44.83-111.2-111a63.5,63.5,0,0,0,0,89.67ZM329.09,276c24.23,11.25,58.29,3.33,83.48-21.86,30.26-30.26,36.12-73.66,12.83-96.95-23.13-23.13-66.53-17.42-96.95,12.83-25.18,25.19-33.1,59.25-21.86,83.48L152,408.13l22.34,22.34L283.46,321.64l109,109,22.34-22.34-109-109Z" transform="translate(-15.73 -15.73)"/></svg>